<svg version="1.1" id="Layer_1" xmlns="http://www.w3.org/2000/svg" xmlns:xlink="http://www.w3.org/1999/xlink" x="0px" y="0px"
	 width="100%" viewBox="0 0 96 96" enable-background="new 0 0 96 96" xml:space="preserve">
<path fill="#64808E" opacity="1.000000" stroke="none" 
	d="
M1.000000,57.000000 
	C1.000000,51.977909 1.000000,46.955814 1.276028,41.785248 
	C2.135926,40.871494 2.850781,40.173435 3.283353,39.330509 
	C7.484817,31.143421 14.514729,26.406509 22.740187,22.958040 
	C35.884171,17.447521 49.562801,16.578690 63.287987,19.182602 
	C75.613838,21.521040 87.349876,25.632069 94.252441,37.555023 
	C94.691193,38.312897 96.062515,38.530865 97.000000,39.000000 
	C97.000000,45.354397 97.000000,51.708797 96.758881,58.190784 
	C95.699760,59.117249 94.663277,59.785954 94.097740,60.735229 
	C88.721245,69.759903 80.168633,74.067192 70.569359,77.034302 
	C57.165558,81.177383 43.554939,81.219032 30.235916,77.735573 
	C19.039530,74.807266 8.739463,69.620506 3.096443,58.378658 
	C2.771548,57.731411 1.715678,57.451088 1.000000,57.000000 
M90.834808,49.477959 
	C79.043716,49.292442 67.252853,49.089375 55.461399,48.930687 
	C51.179901,48.873066 46.896973,48.921417 42.430984,48.921417 
	C42.430984,51.784534 42.430984,53.997135 42.430984,56.750420 
	C46.730782,56.750420 50.693512,56.750423 54.656246,56.750423 
	C58.664230,56.750423 62.672211,56.750420 67.511719,56.750420 
	C59.435585,66.414192 43.919022,67.685104 34.449493,60.423012 
	C26.189606,54.088589 26.255749,43.872829 34.597237,37.604725 
	C44.084095,30.475935 58.920475,31.714727 67.074020,40.277496 
	C67.957779,41.205608 69.024574,42.614586 70.045952,42.649620 
	C76.426781,42.868519 82.818825,42.760105 89.207161,42.760105 
	C89.451393,42.289127 89.695625,41.818150 89.939857,41.347172 
	C87.412994,38.626835 85.187576,35.525391 82.309540,33.249039 
	C65.698959,20.111044 33.166542,20.175602 16.444944,33.183167 
	C4.402213,42.551083 4.447885,55.673302 16.555799,65.034813 
	C33.329826,78.004036 65.879814,77.947632 82.455544,64.842674 
	C87.143936,61.135990 90.858757,56.731110 90.834808,49.477959 
z"/>
<path fill="#000000" opacity="1.000000" stroke="none" 
	d="
M97.000000,38.531342 
	C96.062515,38.530865 94.691193,38.312897 94.252441,37.555023 
	C87.349876,25.632069 75.613838,21.521040 63.287987,19.182602 
	C49.562801,16.578690 35.884171,17.447521 22.740187,22.958040 
	C14.514729,26.406509 7.484817,31.143421 3.283353,39.330509 
	C2.850781,40.173435 2.135926,40.871494 1.276028,41.318386 
	C1.000000,27.700272 1.000000,14.400543 1.000000,1.050408 
	C32.885677,1.050408 64.771454,1.050408 97.000000,1.050408 
	C97.000000,13.352115 97.000000,25.707399 97.000000,38.531342 
z"/>
<path fill="#000000" opacity="1.000000" stroke="none" 
	d="
M1.000000,57.468658 
	C1.715678,57.451088 2.771548,57.731411 3.096443,58.378658 
	C8.739463,69.620506 19.039530,74.807266 30.235916,77.735573 
	C43.554939,81.219032 57.165558,81.177383 70.569359,77.034302 
	C80.168633,74.067192 88.721245,69.759903 94.097740,60.735229 
	C94.663277,59.785954 95.699760,59.117249 96.758881,58.659187 
	C97.000000,71.634743 97.000000,84.269478 97.000000,96.952110 
	C65.112648,96.952110 33.225201,96.952110 1.000000,96.952110 
	C1.000000,83.981056 1.000000,70.959183 1.000000,57.468658 
z"/>
<path fill="#FAFBFB" opacity="1.000000" stroke="none" 
	d="
M90.974266,49.900909 
	C90.858757,56.731110 87.143936,61.135990 82.455544,64.842674 
	C65.879814,77.947632 33.329826,78.004036 16.555799,65.034813 
	C4.447885,55.673302 4.402213,42.551083 16.444944,33.183167 
	C33.166542,20.175602 65.698959,20.111044 82.309540,33.249039 
	C85.187576,35.525391 87.412994,38.626835 89.939857,41.347172 
	C89.695625,41.818150 89.451393,42.289127 89.207161,42.760105 
	C82.818825,42.760105 76.426781,42.868519 70.045952,42.649620 
	C69.024574,42.614586 67.957779,41.205608 67.074020,40.277496 
	C58.920475,31.714727 44.084095,30.475935 34.597237,37.604725 
	C26.255749,43.872829 26.189606,54.088589 34.449493,60.423012 
	C43.919022,67.685104 59.435585,66.414192 67.511719,56.750420 
	C62.672211,56.750420 58.664230,56.750423 54.656246,56.750423 
	C50.693512,56.750423 46.730782,56.750420 42.430984,56.750420 
	C42.430984,53.997135 42.430984,51.784534 42.430984,48.921417 
	C46.896973,48.921417 51.179901,48.873066 55.461399,48.930687 
	C67.252853,49.089375 79.043716,49.292442 90.974266,49.900909 
z"/>
</svg>