<svg version="1.1" id="Layer_1" xmlns="http://www.w3.org/2000/svg" xmlns:xlink="http://www.w3.org/1999/xlink" x="0px" y="0px"
	 width="100%" viewBox="0 0 96 96" enable-background="new 0 0 96 96" xml:space="preserve">
<path fill="#000000" opacity="1.000000" stroke="none" 
	d="
M0.999999,47.000000 
	C1.000000,31.703207 1.000000,16.406414 1.000000,1.054810 
	C32.887123,1.054810 64.774361,1.054810 97.000000,1.054810 
	C97.000000,14.685702 97.000000,28.374193 96.719093,42.847923 
	C94.238045,40.209545 92.428436,36.440125 89.762321,33.429096 
	C82.626717,25.370386 73.178734,21.442255 62.799004,19.389458 
	C46.868469,16.238880 31.570251,18.109379 17.594669,26.364866 
	C10.364122,30.636007 3.949962,36.345192 2.868716,45.732487 
	C2.812532,46.220268 1.648341,46.580425 0.999999,47.000000 
z"/>
<path fill="#000000" opacity="1.000000" stroke="none" 
	d="
M97.000000,55.000000 
	C97.000000,68.966637 97.000000,82.933273 97.000000,96.949951 
	C65.109688,96.949951 33.219284,96.949951 1.000000,96.949951 
	C1.000000,81.980705 1.000000,66.959015 1.369268,51.272827 
	C2.538533,52.846222 3.152933,55.172577 4.170372,57.306797 
	C8.793650,67.004753 17.055037,72.440178 26.750877,75.989983 
	C41.479828,81.382484 56.372021,81.431580 71.133392,76.322884 
	C81.123596,72.865410 89.987061,67.726891 94.394600,57.245213 
	C94.792503,56.298939 96.109711,55.739227 97.000000,55.000000 
z"/>
<path fill="#65818E" opacity="1.000000" stroke="none" 
	d="
M97.000000,54.539360 
	C96.109711,55.739227 94.792503,56.298939 94.394600,57.245213 
	C89.987061,67.726891 81.123596,72.865410 71.133392,76.322884 
	C56.372021,81.431580 41.479828,81.382484 26.750877,75.989983 
	C17.055037,72.440178 8.793650,67.004753 4.170372,57.306797 
	C3.152933,55.172577 2.538533,52.846222 1.369268,50.804169 
	C1.000000,49.933331 1.000000,48.866661 0.999999,47.399994 
	C1.648341,46.580425 2.812532,46.220268 2.868716,45.732487 
	C3.949962,36.345192 10.364122,30.636007 17.594669,26.364866 
	C31.570251,18.109379 46.868469,16.238880 62.799004,19.389458 
	C73.178734,21.442255 82.626717,25.370386 89.762321,33.429096 
	C92.428436,36.440125 94.238045,40.209545 96.719093,43.316582 
	C97.000000,46.692909 97.000000,50.385818 97.000000,54.539360 
M80.469177,48.923325 
	C67.862869,48.923325 55.256565,48.923325 42.421791,48.923325 
	C42.421791,51.760979 42.421791,53.974194 42.421791,56.748314 
	C46.707092,56.748314 50.666958,56.748314 54.626820,56.748314 
	C58.640190,56.748314 62.653561,56.748314 67.453156,56.748314 
	C59.703594,66.252365 44.485695,67.692047 34.888218,60.755688 
	C26.089771,54.396816 26.115416,43.668941 34.944195,37.339424 
	C44.617531,30.404423 58.961613,31.869625 67.361015,40.587948 
	C68.227661,41.487499 69.402214,42.669697 70.466660,42.703999 
	C76.692749,42.904659 82.928604,42.802452 89.161156,42.802452 
	C89.462845,42.246262 89.764534,41.690067 90.066223,41.133877 
	C86.840225,38.015076 83.969078,34.382885 80.327248,31.865726 
	C63.959579,20.552750 35.181644,20.621193 18.552925,31.678816 
	C3.613650,41.613007 3.760417,56.975533 18.924477,66.701607 
	C26.538233,71.584991 35.035019,73.856140 43.946999,74.492508 
	C57.214245,75.439873 69.913376,73.471252 81.147766,65.787956 
	C86.810196,61.915367 90.938736,56.901070 91.256332,48.923325 
	C87.712143,48.923325 84.583443,48.923325 80.469177,48.923325 
z"/>
<path fill="#FAFBFB" opacity="1.000000" stroke="none" 
	d="
M80.961960,48.923325 
	C84.583443,48.923325 87.712143,48.923325 91.256332,48.923325 
	C90.938736,56.901070 86.810196,61.915367 81.147766,65.787956 
	C69.913376,73.471252 57.214245,75.439873 43.946999,74.492508 
	C35.035019,73.856140 26.538233,71.584991 18.924477,66.701607 
	C3.760417,56.975533 3.613650,41.613007 18.552925,31.678816 
	C35.181644,20.621193 63.959579,20.552750 80.327248,31.865726 
	C83.969078,34.382885 86.840225,38.015076 90.066223,41.133877 
	C89.764534,41.690067 89.462845,42.246262 89.161156,42.802452 
	C82.928604,42.802452 76.692749,42.904659 70.466660,42.703999 
	C69.402214,42.669697 68.227661,41.487499 67.361015,40.587948 
	C58.961613,31.869625 44.617531,30.404423 34.944195,37.339424 
	C26.115416,43.668941 26.089771,54.396816 34.888218,60.755688 
	C44.485695,67.692047 59.703594,66.252365 67.453156,56.748314 
	C62.653561,56.748314 58.640190,56.748314 54.626820,56.748314 
	C50.666958,56.748314 46.707092,56.748314 42.421791,56.748314 
	C42.421791,53.974194 42.421791,51.760979 42.421791,48.923325 
	C55.256565,48.923325 67.862869,48.923325 80.961960,48.923325 
z"/>
</svg>